# xmcd
#
# Track frame offsets:
#	150
#	14979
#	29004
#	44848
#	58623
#	72426
#	89198
#	100429
#	115473
#	131778
#	148064
#	161556
#
# Disc length: 2359 seconds
#
# Revision: 0
# Processed by: cddbd v1.5.1PL0 Copyright (c) Steve Scherf et al.
# Submitted via: audiograbber 1.83.01
#
DISCID=c909350c
DTITLE=Wills, Mark - Mark Wills - Wills, Mark - Mark Wills
DYEAR=1996
DGENRE=Country
TTITLE0=High Low And In Between
TTITLE1=Jacob's Ladder
TTITLE2=What's Not To Love
TTITLE3=Any Fool Can Say Goodbye
TTITLE4=Ace Of Hearts
TTITLE5=Leavin' Comin' On
TTITLE6=Sudden Stop
TTITLE7=I Wonder If He Knows
TTITLE8=Places I've Never Been
TTITLE9=Squeeze Box
TTITLE10=What Love Is
TTITLE11=Look Where She Is Today
EXTD=
EXTT0=
EXTT1=
EXTT2=
EXTT3=
EXTT4=
EXTT5=
EXTT6=
EXTT7=
EXTT8=
EXTT9=
EXTT10=
EXTT11=
PLAYORDER=
